<mxfile host="65bd71144e">
    <diagram id="GqkMFVIw6JVM-n9Q7T_5" name="Page-1">
        <mxGraphModel dx="2520" dy="1095" grid="1" gridSize="10" guides="1" tooltips="1" connect="1" arrows="1" fold="1" page="1" pageScale="1" pageWidth="850" pageHeight="1100" math="0" shadow="0">
            <root>
                <mxCell id="0"/>
                <mxCell id="1" parent="0"/>
                <mxCell id="86" value="&lt;b&gt;Légende&lt;/b&gt;" style="rounded=0;whiteSpace=wrap;html=1;dashed=1;verticalAlign=top;" vertex="1" parent="1">
                    <mxGeometry x="695" y="40" width="110" height="190" as="geometry"/>
                </mxCell>
                <mxCell id="2" value="Utilisateur non connecté" style="shape=umlActor;verticalLabelPosition=bottom;verticalAlign=top;html=1;outlineConnect=0;" vertex="1" parent="1">
                    <mxGeometry x="60" y="150" width="30" height="60" as="geometry"/>
                </mxCell>
                <mxCell id="3" value="S'inscrire" style="ellipse;whiteSpace=wrap;html=1;fillColor=#f8cecc;strokeColor=#b85450;" vertex="1" parent="1">
                    <mxGeometry x="160" y="30" width="120" height="50" as="geometry"/>
                </mxCell>
                <mxCell id="5" value="Se connecter" style="ellipse;whiteSpace=wrap;html=1;fillColor=#f8cecc;strokeColor=#b85450;" vertex="1" parent="1">
                    <mxGeometry x="190" y="120" width="120" height="50" as="geometry"/>
                </mxCell>
                <mxCell id="6" value="Découvrir des activités" style="ellipse;whiteSpace=wrap;html=1;fillColor=#dae8fc;strokeColor=#6c8ebf;" vertex="1" parent="1">
                    <mxGeometry x="140" y="240" width="120" height="50" as="geometry"/>
                </mxCell>
                <mxCell id="7" value="Découvrir les activités du soir" style="ellipse;whiteSpace=wrap;html=1;fillColor=#dae8fc;strokeColor=#6c8ebf;" vertex="1" parent="1">
                    <mxGeometry x="375" y="140" width="110" height="70" as="geometry"/>
                </mxCell>
                <mxCell id="8" value="Découvrir les activités du week end" style="ellipse;whiteSpace=wrap;html=1;fillColor=#dae8fc;strokeColor=#6c8ebf;" vertex="1" parent="1">
                    <mxGeometry x="375" y="230" width="110" height="60" as="geometry"/>
                </mxCell>
                <mxCell id="9" value="Découvrir les activités par catégorie" style="ellipse;whiteSpace=wrap;html=1;fillColor=#dae8fc;strokeColor=#6c8ebf;" vertex="1" parent="1">
                    <mxGeometry x="375" y="310" width="110" height="60" as="geometry"/>
                </mxCell>
                <mxCell id="10" value="Include" style="endArrow=open;endSize=12;dashed=1;html=1;" edge="1" parent="1" source="6" target="7">
                    <mxGeometry width="160" relative="1" as="geometry">
                        <mxPoint x="340" y="210" as="sourcePoint"/>
                        <mxPoint x="500" y="210" as="targetPoint"/>
                    </mxGeometry>
                </mxCell>
                <mxCell id="11" value="Include" style="endArrow=open;endSize=12;dashed=1;html=1;" edge="1" parent="1" source="6" target="8">
                    <mxGeometry width="160" relative="1" as="geometry">
                        <mxPoint x="390" y="315" as="sourcePoint"/>
                        <mxPoint x="499.9999999999977" y="285" as="targetPoint"/>
                    </mxGeometry>
                </mxCell>
                <mxCell id="12" value="Extend" style="endArrow=open;endSize=12;dashed=1;html=1;" edge="1" parent="1" source="9" target="6">
                    <mxGeometry width="160" relative="1" as="geometry">
                        <mxPoint x="390" y="315" as="sourcePoint"/>
                        <mxPoint x="502.8599999999999" y="367.44000000000005" as="targetPoint"/>
                    </mxGeometry>
                </mxCell>
                <mxCell id="13" value="Rechercher des activités" style="ellipse;whiteSpace=wrap;html=1;fillColor=#dae8fc;strokeColor=#6c8ebf;" vertex="1" parent="1">
                    <mxGeometry x="140" y="390" width="120" height="50" as="geometry"/>
                </mxCell>
                <mxCell id="14" value="Par mots clés (titre, description, lieu), dates, categorie, coût, nb de personne" style="rounded=0;whiteSpace=wrap;html=1;" vertex="1" parent="1">
                    <mxGeometry x="130" y="500" width="150" height="80" as="geometry"/>
                </mxCell>
                <mxCell id="16" value="" style="endArrow=none;dashed=1;html=1;dashPattern=1 3;strokeWidth=2;" edge="1" parent="1" source="14" target="13">
                    <mxGeometry width="50" height="50" relative="1" as="geometry">
                        <mxPoint x="500" y="540" as="sourcePoint"/>
                        <mxPoint x="550" y="490" as="targetPoint"/>
                    </mxGeometry>
                </mxCell>
                <mxCell id="22" value="Consulter une activité" style="ellipse;whiteSpace=wrap;html=1;fillColor=#dae8fc;strokeColor=#6c8ebf;" vertex="1" parent="1">
                    <mxGeometry x="330" y="400" width="110" height="50" as="geometry"/>
                </mxCell>
                <mxCell id="23" value="Extend" style="endArrow=open;endSize=12;dashed=1;html=1;" edge="1" parent="1" source="22" target="6">
                    <mxGeometry width="160" relative="1" as="geometry">
                        <mxPoint x="485" y="410" as="sourcePoint"/>
                        <mxPoint x="330" y="340" as="targetPoint"/>
                    </mxGeometry>
                </mxCell>
                <mxCell id="24" value="Extend" style="endArrow=open;endSize=12;dashed=1;html=1;" edge="1" parent="1" source="22" target="13">
                    <mxGeometry width="160" relative="1" as="geometry">
                        <mxPoint x="380" y="530" as="sourcePoint"/>
                        <mxPoint x="287.57359312880703" y="332.6776695296637" as="targetPoint"/>
                    </mxGeometry>
                </mxCell>
                <mxCell id="25" value="Supprimer une activité" style="ellipse;whiteSpace=wrap;html=1;fillColor=#d5e8d4;strokeColor=#82b366;" vertex="1" parent="1">
                    <mxGeometry x="540" y="360" width="120" height="50" as="geometry"/>
                </mxCell>
                <mxCell id="26" value="Éditer une activité" style="ellipse;whiteSpace=wrap;html=1;fillColor=#d5e8d4;strokeColor=#82b366;" vertex="1" parent="1">
                    <mxGeometry x="540" y="450" width="120" height="50" as="geometry"/>
                </mxCell>
                <mxCell id="27" value="Extend" style="endArrow=open;endSize=12;dashed=1;html=1;" edge="1" parent="1" source="25" target="22">
                    <mxGeometry width="160" relative="1" as="geometry">
                        <mxPoint x="322.3959231086801" y="507.1970927579687" as="sourcePoint"/>
                        <mxPoint x="252.170517418524" y="563.2635860651806" as="targetPoint"/>
                    </mxGeometry>
                </mxCell>
                <mxCell id="28" value="Extend" style="endArrow=open;endSize=12;dashed=1;html=1;" edge="1" parent="1" source="26" target="22">
                    <mxGeometry width="160" relative="1" as="geometry">
                        <mxPoint x="332.3959231086801" y="517.1970927579687" as="sourcePoint"/>
                        <mxPoint x="262.170517418524" y="573.2635860651806" as="targetPoint"/>
                    </mxGeometry>
                </mxCell>
                <mxCell id="29" value="Si créateur de l'activité" style="rounded=0;whiteSpace=wrap;html=1;" vertex="1" parent="1">
                    <mxGeometry x="685" y="440" width="110" height="50" as="geometry"/>
                </mxCell>
                <mxCell id="30" value="" style="endArrow=none;dashed=1;html=1;dashPattern=1 3;strokeWidth=2;" edge="1" parent="1" source="29" target="25">
                    <mxGeometry width="50" height="50" relative="1" as="geometry">
                        <mxPoint x="530" y="548.5294117647059" as="sourcePoint"/>
                        <mxPoint x="395.78274032635386" y="501.1586142328306" as="targetPoint"/>
                    </mxGeometry>
                </mxCell>
                <mxCell id="31" value="" style="endArrow=none;dashed=1;html=1;dashPattern=1 3;strokeWidth=2;" edge="1" parent="1" source="26" target="29">
                    <mxGeometry width="50" height="50" relative="1" as="geometry">
                        <mxPoint x="439.31818181818176" y="680" as="sourcePoint"/>
                        <mxPoint x="425.65651235507835" y="619.8886543623448" as="targetPoint"/>
                    </mxGeometry>
                </mxCell>
                <mxCell id="32" value="S'inscrire à une activité" style="ellipse;whiteSpace=wrap;html=1;fillColor=#d5e8d4;strokeColor=#82b366;" vertex="1" parent="1">
                    <mxGeometry x="540" y="540" width="120" height="50" as="geometry"/>
                </mxCell>
                <mxCell id="33" value="Extend" style="endArrow=open;endSize=12;dashed=1;html=1;" edge="1" parent="1" source="32" target="22">
                    <mxGeometry width="160" relative="1" as="geometry">
                        <mxPoint x="408.90445602171553" y="666.7846778042199" as="sourcePoint"/>
                        <mxPoint x="264.3253667957147" y="602.4779407980955" as="targetPoint"/>
                    </mxGeometry>
                </mxCell>
                <mxCell id="34" value="Si non inscrit, non créateur de l'activité et place restante &amp;gt; 0" style="rounded=0;whiteSpace=wrap;html=1;" vertex="1" parent="1">
                    <mxGeometry x="680" y="550" width="140" height="60" as="geometry"/>
                </mxCell>
                <mxCell id="35" value="" style="endArrow=none;dashed=1;html=1;dashPattern=1 3;strokeWidth=2;" edge="1" parent="1" source="32" target="34">
                    <mxGeometry width="50" height="50" relative="1" as="geometry">
                        <mxPoint x="509.38743038898156" y="681.4367541766612" as="sourcePoint"/>
                        <mxPoint x="550" y="678.5483870967741" as="targetPoint"/>
                    </mxGeometry>
                </mxCell>
                <mxCell id="36" value="Se désinscrire à une activité" style="ellipse;whiteSpace=wrap;html=1;fillColor=#d5e8d4;strokeColor=#82b366;" vertex="1" parent="1">
                    <mxGeometry x="510" y="640" width="140" height="60" as="geometry"/>
                </mxCell>
                <mxCell id="37" value="Extend" style="endArrow=open;endSize=12;dashed=1;html=1;" edge="1" parent="1" source="36" target="22">
                    <mxGeometry width="160" relative="1" as="geometry">
                        <mxPoint x="411.9230769230769" y="771.9230769230769" as="sourcePoint"/>
                        <mxPoint x="247.7591619365653" y="607.7591619365653" as="targetPoint"/>
                    </mxGeometry>
                </mxCell>
                <mxCell id="38" value="Si inscrit et non créateur de l'activité" style="rounded=0;whiteSpace=wrap;html=1;" vertex="1" parent="1">
                    <mxGeometry x="680" y="640" width="140" height="60" as="geometry"/>
                </mxCell>
                <mxCell id="40" value="" style="endArrow=none;dashed=1;html=1;dashPattern=1 3;strokeWidth=2;" edge="1" parent="1" source="36" target="38">
                    <mxGeometry width="50" height="50" relative="1" as="geometry">
                        <mxPoint x="489.0913834480964" y="784.1817233103807" as="sourcePoint"/>
                        <mxPoint x="540" y="774" as="targetPoint"/>
                    </mxGeometry>
                </mxCell>
                <mxCell id="42" value="Consulter son profil" style="ellipse;whiteSpace=wrap;html=1;fillColor=#d5e8d4;strokeColor=#82b366;" vertex="1" parent="1">
                    <mxGeometry x="190" y="890" width="100" height="70" as="geometry"/>
                </mxCell>
                <mxCell id="43" value="Consulter ses activités" style="ellipse;whiteSpace=wrap;html=1;fillColor=#d5e8d4;strokeColor=#82b366;" vertex="1" parent="1">
                    <mxGeometry x="200" y="635" width="100" height="70" as="geometry"/>
                </mxCell>
                <mxCell id="45" value="Activités créées ou activités pour lequel il est inscrit" style="rounded=0;whiteSpace=wrap;html=1;" vertex="1" parent="1">
                    <mxGeometry x="340" y="640" width="140" height="60" as="geometry"/>
                </mxCell>
                <mxCell id="46" value="" style="endArrow=none;dashed=1;html=1;dashPattern=1 3;strokeWidth=2;" edge="1" parent="1" source="43" target="45">
                    <mxGeometry width="50" height="50" relative="1" as="geometry">
                        <mxPoint x="460" y="880" as="sourcePoint"/>
                        <mxPoint x="530" y="880" as="targetPoint"/>
                    </mxGeometry>
                </mxCell>
                <mxCell id="48" value="Extend" style="endArrow=open;endSize=12;dashed=1;html=1;" edge="1" parent="1" source="22" target="43">
                    <mxGeometry width="160" relative="1" as="geometry">
                        <mxPoint x="250.26826053805917" y="562.7945589210997" as="sourcePoint"/>
                        <mxPoint x="324.32364953238107" y="497.5951884115045" as="targetPoint"/>
                    </mxGeometry>
                </mxCell>
                <mxCell id="51" value="Consulter la liste des conversations par activité" style="ellipse;whiteSpace=wrap;html=1;fillColor=#d5e8d4;strokeColor=#82b366;" vertex="1" parent="1">
                    <mxGeometry x="180" y="740" width="170" height="80" as="geometry"/>
                </mxCell>
                <mxCell id="52" value="Consulter les messages d'une activité" style="ellipse;whiteSpace=wrap;html=1;fillColor=#d5e8d4;strokeColor=#82b366;" vertex="1" parent="1">
                    <mxGeometry x="460" y="740" width="125" height="90" as="geometry"/>
                </mxCell>
                <mxCell id="53" value="Envoyer un message associé à une activité" style="ellipse;whiteSpace=wrap;html=1;fillColor=#d5e8d4;strokeColor=#82b366;" vertex="1" parent="1">
                    <mxGeometry x="682.5" y="740" width="135" height="80" as="geometry"/>
                </mxCell>
                <mxCell id="55" value="Extend" style="endArrow=open;endSize=12;dashed=1;html=1;" edge="1" parent="1" source="53" target="52">
                    <mxGeometry width="160" relative="1" as="geometry">
                        <mxPoint x="373.68432727246295" y="850.8262805534105" as="sourcePoint"/>
                        <mxPoint x="238.5519328500393" y="609.2292132773428" as="targetPoint"/>
                    </mxGeometry>
                </mxCell>
                <mxCell id="56" value="Extend" style="endArrow=open;endSize=12;dashed=1;html=1;" edge="1" parent="1" source="52" target="51">
                    <mxGeometry width="160" relative="1" as="geometry">
                        <mxPoint x="606.8480689956557" y="1100.7041513622166" as="sourcePoint"/>
                        <mxPoint x="558.804934155592" y="1093.757847736513" as="targetPoint"/>
                    </mxGeometry>
                </mxCell>
                <mxCell id="61" value="" style="endArrow=none;html=1;" edge="1" parent="1" source="2" target="3">
                    <mxGeometry width="50" height="50" relative="1" as="geometry">
                        <mxPoint x="510" y="380" as="sourcePoint"/>
                        <mxPoint x="560" y="330" as="targetPoint"/>
                    </mxGeometry>
                </mxCell>
                <mxCell id="64" value="" style="endArrow=none;html=1;" edge="1" parent="1" source="2" target="5">
                    <mxGeometry width="50" height="50" relative="1" as="geometry">
                        <mxPoint x="155" y="158.81578947368416" as="sourcePoint"/>
                        <mxPoint x="271.0488507883997" y="149.6540380956527" as="targetPoint"/>
                    </mxGeometry>
                </mxCell>
                <mxCell id="67" value="Utilisateur connecté" style="shape=umlActor;verticalLabelPosition=bottom;verticalAlign=top;html=1;outlineConnect=0;" vertex="1" parent="1">
                    <mxGeometry x="40" y="560" width="30" height="60" as="geometry"/>
                </mxCell>
                <mxCell id="70" value="" style="endArrow=none;html=1;" edge="1" parent="1" source="67" target="6">
                    <mxGeometry width="50" height="50" relative="1" as="geometry">
                        <mxPoint x="146.5934065934066" y="190" as="sourcePoint"/>
                        <mxPoint x="234.53270864037995" y="590.1238243137286" as="targetPoint"/>
                    </mxGeometry>
                </mxCell>
                <mxCell id="72" value="" style="endArrow=none;html=1;" edge="1" parent="1" source="2" target="13">
                    <mxGeometry width="50" height="50" relative="1" as="geometry">
                        <mxPoint x="146.5934065934066" y="190" as="sourcePoint"/>
                        <mxPoint x="234.53270864037995" y="590.1238243137286" as="targetPoint"/>
                    </mxGeometry>
                </mxCell>
                <mxCell id="73" value="" style="endArrow=none;html=1;" edge="1" parent="1" source="67" target="13">
                    <mxGeometry width="50" height="50" relative="1" as="geometry">
                        <mxPoint x="156.5934065934066" y="200" as="sourcePoint"/>
                        <mxPoint x="357.87447526523806" y="481.0399768619159" as="targetPoint"/>
                    </mxGeometry>
                </mxCell>
                <mxCell id="74" value="" style="endArrow=none;html=1;" edge="1" parent="1" source="67" target="43">
                    <mxGeometry width="50" height="50" relative="1" as="geometry">
                        <mxPoint x="50" y="595.8088235294117" as="sourcePoint"/>
                        <mxPoint x="325.1673604848479" y="518.923825746881" as="targetPoint"/>
                    </mxGeometry>
                </mxCell>
                <mxCell id="75" value="" style="endArrow=none;html=1;" edge="1" parent="1" source="67" target="51">
                    <mxGeometry width="50" height="50" relative="1" as="geometry">
                        <mxPoint x="50" y="624.5121951219512" as="sourcePoint"/>
                        <mxPoint x="220.31231448461995" y="902.8274407431595" as="targetPoint"/>
                    </mxGeometry>
                </mxCell>
                <mxCell id="76" value="" style="endArrow=none;html=1;" edge="1" parent="1" source="67" target="42">
                    <mxGeometry width="50" height="50" relative="1" as="geometry">
                        <mxPoint x="48.085106382978665" y="630" as="sourcePoint"/>
                        <mxPoint x="222.9094912410951" y="1030.8168823576325" as="targetPoint"/>
                    </mxGeometry>
                </mxCell>
                <mxCell id="77" value="" style="endArrow=none;html=1;" edge="1" parent="1" source="2" target="6">
                    <mxGeometry width="50" height="50" relative="1" as="geometry">
                        <mxPoint x="60" y="217.22222222222217" as="sourcePoint"/>
                        <mxPoint x="166.57380899949294" y="410.6339496657465" as="targetPoint"/>
                    </mxGeometry>
                </mxCell>
                <mxCell id="80" value="Non connecté" style="rounded=0;whiteSpace=wrap;html=1;fillColor=#f8cecc;strokeColor=#b85450;" vertex="1" parent="1">
                    <mxGeometry x="705" y="75" width="90" height="40" as="geometry"/>
                </mxCell>
                <mxCell id="82" value="Connecté" style="rounded=0;whiteSpace=wrap;html=1;fillColor=#d5e8d4;strokeColor=#82b366;" vertex="1" parent="1">
                    <mxGeometry x="705" y="125" width="90" height="40" as="geometry"/>
                </mxCell>
                <mxCell id="83" value="Les deux" style="rounded=0;whiteSpace=wrap;html=1;fillColor=#dae8fc;strokeColor=#6c8ebf;" vertex="1" parent="1">
                    <mxGeometry x="705" y="175" width="90" height="40" as="geometry"/>
                </mxCell>
            </root>
        </mxGraphModel>
    </diagram>
</mxfile>